# xmcd
#
# Track frame offsets:
#	150
#	27100
#	51957
#	72108
#	88738
#	112567
#	137619
#	159824
#	172034
#	187620
#	205377
#	226655
#
# Disc length: 3247 seconds
#
# Revision: 1
# Processed by: cddbd v1.5.2PL0 Copyright (c) Steve Scherf et al.
# Submitted via: audiograbber 1.83.01
#
DISCID=890cad0c
DTITLE=Ellen and Bernd Marquart - You and Me
DYEAR=2010
DGENRE=Jazz
TTITLE0=My One and Only Love
TTITLE1=What Do I Know
TTITLE2=If You Would Be Here
TTITLE3=Blues For Us
TTITLE4=Let's Face The Music And Dance
TTITLE5=Django
TTITLE6=Long Long Summer
TTITLE7=The Man I Love
TTITLE8=Alone Together
TTITLE9=Lush Life
TTITLE10=Sweet Spring
TTITLE11=Homeland
EXTD=YEAR: 2010
EXTT0=
EXTT1=
EXTT2=
EXTT3=
EXTT4=
EXTT5=
EXTT6=
EXTT7=
EXTT8=
EXTT9=
EXTT10=
EXTT11=
PLAYORDER=
